<?xml version="1.0" standalone="no"?>
<!DOCTYPE svg PUBLIC "-//W3C//DTD SVG 20010904//EN"
 "http://www.w3.org/TR/2001/REC-SVG-20010904/DTD/svg10.dtd">
<svg version="1.0" xmlns="http://www.w3.org/2000/svg"
 width="700.000000pt" height="700.000000pt" viewBox="0 0 700.000000 700.000000"
 preserveAspectRatio="xMidYMid meet">
<metadata>
Created by potrace 1.14, written by Peter Selinger 2001-2017
</metadata>
<g transform="translate(0.000000,700.000000) scale(0.100000,-0.100000)"
fill="#000000" stroke="none">
<path d="M4223 6752 c-8 -5 -14 -74 -18 -202 -3 -107 -7 -235 -10 -285 -2 -49
-7 -180 -10 -290 -8 -286 -15 -409 -26 -415 -7 -5 -310 -6 -371 -1 -20 1 -25
12 -155 296 -135 297 -221 475 -229 475 -6 0 -97 -74 -133 -108 -7 -7 -59 -52
-115 -100 -55 -48 -110 -96 -122 -107 -11 -11 -47 -42 -79 -70 -33 -27 -115
-99 -184 -159 -70 -60 -153 -132 -186 -160 -32 -28 -98 -85 -145 -126 -48 -41
-149 -129 -225 -195 -75 -66 -150 -131 -165 -145 -15 -14 -53 -47 -86 -75 -32
-27 -68 -59 -80 -70 -12 -11 -48 -43 -80 -72 -63 -55 -68 -59 -165 -143 -60
-52 -187 -165 -348 -309 -74 -66 -90 -80 -146 -128 -16 -15 -68 -60 -115 -102
-47 -42 -100 -89 -119 -106 -19 -16 -41 -37 -50 -46 -9 -8 -78 -70 -153 -137
-126 -113 -156 -142 -145 -142 3 0 105 77 327 249 45 35 90 69 99 77 9 7 140
109 291 226 270 209 420 327 450 351 8 7 33 26 55 42 22 16 42 32 45 36 3 3
70 57 150 119 140 110 610 482 640 507 8 7 143 114 300 238 157 124 307 245
334 268 27 23 54 45 61 49 15 9 42 -48 190 -400 59 -138 111 -254 116 -257 9
-6 104 -12 289 -19 69 -3 207 -8 306 -12 104 -4 184 -3 187 2 7 12 15 100 23
239 3 61 7 139 9 175 2 36 7 124 10 195 4 72 10 133 14 137 12 14 40 -17 408
-448 103 -121 208 -244 233 -274 25 -30 54 -64 65 -76 11 -12 38 -43 60 -70
43 -51 145 -170 230 -269 29 -33 106 -123 172 -200 67 -77 135 -156 152 -175
17 -19 34 -39 38 -45 5 -5 65 -75 133 -154 346 -400 409 -475 405 -480 -3 -6
-15 -89 -31 -204 -2 -15 -6 -47 -9 -70 -4 -23 -8 -55 -10 -72 -3 -16 -18 -124
-35 -240 -16 -115 -33 -230 -36 -255 -3 -25 -7 -56 -10 -70 -2 -14 -8 -61 -14
-105 -6 -44 -13 -91 -15 -105 -2 -14 -9 -61 -15 -105 -6 -44 -12 -89 -15 -100
-2 -11 -4 -30 -4 -43 -1 -25 -15 -39 -176 -187 -60 -55 -136 -125 -169 -156
-34 -31 -73 -67 -87 -80 -15 -13 -64 -58 -109 -99 -45 -41 -90 -79 -100 -84
-14 -6 -121 44 -447 210 -533 271 -1534 771 -1630 814 l-72 32 -43 -22 c-24
-12 -61 -32 -83 -45 -22 -13 -47 -27 -55 -32 -8 -4 -50 -29 -92 -55 -43 -26
-80 -48 -83 -48 -3 0 -11 -5 -18 -10 -7 -6 -112 -70 -235 -143 -122 -73 -460
-275 -750 -449 -290 -175 -535 -318 -543 -318 -10 0 -32 33 -57 85 -23 47 -42
87 -42 90 0 2 -25 57 -56 122 -59 124 -112 235 -174 368 -21 44 -69 145 -108
225 -38 80 -95 199 -127 265 -120 256 -339 694 -344 690 -4 -4 35 -115 60
-170 5 -11 22 -54 37 -95 32 -83 336 -838 357 -885 7 -16 27 -64 43 -105 16
-41 62 -154 101 -250 240 -585 225 -550 247 -550 9 0 79 34 157 77 78 42 165
88 192 103 28 15 73 39 100 55 80 44 146 80 205 113 30 16 145 79 255 139 110
61 241 132 290 158 50 27 112 61 138 77 26 15 50 28 52 28 2 0 50 26 107 59
57 32 128 72 158 88 30 16 115 62 187 102 l133 73 162 -87 c90 -48 190 -102
223 -120 33 -18 164 -88 290 -155 127 -67 257 -137 290 -155 33 -18 105 -56
160 -85 55 -29 118 -63 140 -75 22 -12 103 -55 180 -95 152 -79 301 -157 380
-200 133 -72 303 -160 327 -169 25 -9 33 -6 82 33 29 24 67 57 83 73 16 15 47
44 69 63 22 19 80 71 129 115 49 44 106 94 125 111 19 17 62 55 95 85 34 30
96 86 139 124 43 39 102 93 132 120 l53 50 16 119 c9 65 18 128 20 140 10 64
35 237 40 271 2 22 7 51 10 64 2 14 7 47 10 75 3 28 7 58 10 66 2 8 6 38 10
65 7 60 12 93 30 210 7 50 17 115 20 145 4 30 11 76 16 102 4 26 11 69 14 95
3 26 13 94 21 149 23 163 33 139 -137 335 -84 96 -224 257 -312 359 -88 102
-171 199 -186 215 -14 17 -107 122 -205 235 -99 113 -188 214 -198 225 -24 26
-63 71 -118 135 -25 29 -50 58 -55 64 -9 10 -182 207 -245 280 -14 16 -36 41
-50 56 -14 15 -45 52 -70 81 -25 29 -50 57 -55 63 -6 6 -96 108 -200 226 -104
118 -192 217 -195 220 -3 3 -20 23 -39 45 -18 22 -52 60 -75 85 -22 25 -83 95
-135 155 -125 145 -145 165 -158 157z"/>
<path d="M3269 4788 c-23 -40 -53 -93 -67 -116 -23 -40 -25 -56 -28 -180 -6
-276 -5 -1212 1 -1222 8 -14 132 -13 141 1 8 13 9 1577 1 1585 -3 3 -24 -27
-48 -68z"/>
<path d="M2420 4770 l-115 -5 -1 -68 c0 -38 5 -71 10 -75 11 -6 78 -9 354 -12
122 -1 162 -5 159 -14 -3 -6 -86 -118 -185 -249 -100 -130 -186 -245 -191
-256 -9 -16 -5 -24 23 -49 33 -29 34 -29 95 -17 83 18 144 10 218 -26 67 -32
106 -72 144 -147 35 -70 34 -188 -3 -257 -33 -63 -88 -118 -147 -147 -37 -19
-63 -23 -131 -23 -75 0 -91 3 -138 29 -66 37 -117 92 -149 162 -22 49 -26 52
-49 44 -70 -27 -114 -52 -114 -66 0 -28 61 -135 102 -180 44 -47 139 -111 203
-136 25 -9 75 -15 135 -16 148 -1 249 39 349 140 45 46 107 157 116 208 3 18
8 37 11 42 10 15 5 136 -6 180 -21 78 -72 169 -124 221 -52 53 -177 127 -215
127 -14 0 -21 6 -21 19 0 18 103 160 310 426 49 64 90 123 90 131 0 16 5 15
-380 18 -129 0 -287 -1 -350 -4z"/>
<path d="M3476 4762 c-9 -8 -7 -142 2 -143 4 0 119 -3 256 -5 138 -3 252 -6
254 -9 7 -7 -154 -228 -330 -451 -26 -34 -48 -66 -48 -71 0 -5 12 -23 28 -41
26 -31 29 -32 66 -21 210 59 401 -71 414 -281 4 -65 1 -83 -22 -135 -88 -197
-342 -247 -494 -96 -28 27 -58 71 -72 104 -14 31 -29 57 -33 57 -12 0 -125
-59 -131 -69 -11 -17 67 -154 118 -206 92 -94 201 -135 349 -131 110 3 151 15
238 71 79 51 129 109 169 198 60 132 58 256 -5 394 -55 119 -138 195 -267 243
-32 12 -58 26 -58 31 0 10 82 120 320 432 49 65 90 122 90 128 0 11 -834 12
-844 1z"/>
<path d="M4690 4755 c-113 -31 -213 -103 -282 -203 -34 -49 -65 -133 -70 -188
-3 -36 0 -40 33 -57 20 -9 53 -18 74 -20 l38 -2 13 57 c27 116 85 191 184 236
114 53 246 26 340 -68 56 -56 83 -119 86 -200 4 -106 -20 -157 -140 -290 -23
-25 -70 -79 -106 -120 -36 -41 -88 -100 -115 -130 -28 -30 -84 -93 -124 -140
-104 -120 -129 -149 -191 -219 -57 -65 -69 -90 -62 -128 l4 -22 444 0 c297 -1
445 3 449 10 9 13 10 128 1 136 -3 3 -131 8 -283 10 -153 2 -284 5 -290 8 -23
8 -14 29 35 81 98 105 410 461 450 515 159 211 103 521 -119 669 -33 22 -83
47 -112 55 -67 21 -199 26 -257 10z"/>
<path d="M6155 1490 c-16 -4 -64 -15 -105 -24 -341 -76 -653 -167 -754 -218
-35 -18 -38 -22 -32 -50 14 -70 256 -525 364 -686 10 -15 36 -53 57 -84 20
-32 41 -58 46 -58 7 0 159 300 217 430 107 238 176 406 199 485 8 28 19 55 23
60 8 11 50 132 50 147 0 10 -24 9 -65 -2z m-361 -279 c42 -1 57 -4 53 -13 -3
-7 -38 -87 -78 -178 -39 -91 -77 -171 -84 -179 -11 -11 -45 19 -204 177 -159
159 -186 191 -168 194 19 3 289 2 481 -1z"/>
</g>
</svg>
